#Comment line ignore any data following # character 
#Hierarchical Translation and Rotation (.htr) file 
[Header]	
#Header keywords are followed by a single value 
FileType HTR		#Single word string
DataType HTRS		#Translation followed by rotation and scale data
FileVersion 1		#integer
NumSegments 84		#integer
NumFrames 2		#integer
DataFrameRate 30		#integer, data frame rate in this file
EulerRotationOrder ZYX
CalibrationUnits mm
RotationUnits Degrees
GlobalAxisofGravity Y
BoneLengthAxis Y
ScaleFactor 1.00
[SegmentNames&Hierarchy]
#CHILD	PARENT
MASTER GLOBAL
root MASTER
chest root
L_mid_tent01 root
R_mid_tent01 root
spine01 root
Bip01_Neck chest
L_humerus chest
R_humerus chest
weapon_bone chest
Bip01_Head Bip01_Neck
eye_left_bone Bip01_Head
eye_right_bone Bip01_Head
L_forearm L_humerus
L_front_hand L_forearm
L_weapon_bone L_forearm
L_front_hand01_01 L_front_hand
L_front_hand02_01 L_front_hand
L_front_hand03_01 L_front_hand
L_front_hand01_02 L_front_hand01_01
L_front_hand02_02 L_front_hand02_01
L_front_hand03_02 L_front_hand03_01
R_forearm R_humerus
R_front_hand R_forearm
R_weapon_bone R_forearm
R_front_hand01_01 R_front_hand
R_front_hand02_01 R_front_hand
R_front_hand03_01 R_front_hand
R_front_hand01_02 R_front_hand01_01
R_front_hand02_02 R_front_hand02_01
R_front_hand03_02 R_front_hand03_01
null_rope01_connect L_mid_tent01
Rope1_Seg01 null_rope01_connect
Rope1_Seg02 Rope1_Seg01
Rope1_Seg03 Rope1_Seg02
Rope1_Seg04 Rope1_Seg03
Rope1_Seg05 Rope1_Seg04
Rope1_Seg06 Rope1_Seg05
Rope1_Seg07 Rope1_Seg06
Rope1_Seg09 Rope1_Seg07
L_mid_hand01 Rope1_Seg09
L_mid_hand02 Rope1_Seg09
L_mid_hand03 Rope1_Seg09
null_rope02_connect R_mid_tent01
Rope2_Seg01 null_rope02_connect
Rope2_Seg02 Rope2_Seg01
Rope2_Seg03 Rope2_Seg02
Rope2_Seg04 Rope2_Seg03
Rope2_Seg05 Rope2_Seg04
Rope2_Seg06 Rope2_Seg05
Rope2_Seg07 Rope2_Seg06
Rope2_Seg09 Rope2_Seg07
R_mid_hand01 Rope2_Seg09
R_mid_hand02 Rope2_Seg09
R_mid_hand03 Rope2_Seg09
spine02 spine01
spine03 spine02
pelvis spine03
null_rope03_connect pelvis
null_rope04_connect pelvis
Rope3_Seg01 null_rope03_connect
Rope3_Seg02 Rope3_Seg01
Rope3_Seg03 Rope3_Seg02
Rope3_Seg04 Rope3_Seg03
Rope3_Seg05 Rope3_Seg04
Rope3_Seg06 Rope3_Seg05
Rope3_Seg07 Rope3_Seg06
Rope3_Seg08 Rope3_Seg07
Rope3_Seg09 Rope3_Seg08
R_rear_hand01 Rope3_Seg09
R_rear_hand02 Rope3_Seg09
R_rear_hand03 Rope3_Seg09
Rope4_Seg01 null_rope04_connect
Rope4_Seg02 Rope4_Seg01
Rope4_Seg03 Rope4_Seg02
Rope4_Seg04 Rope4_Seg03
Rope4_Seg05 Rope4_Seg04
Rope4_Seg06 Rope4_Seg05
Rope4_Seg07 Rope4_Seg06
Rope4_Seg08 Rope4_Seg07
Rope4_Seg09 Rope4_Seg08
L_rear_hand01 Rope4_Seg09
L_rear_hand02 Rope4_Seg09
L_rear_hand03 Rope4_Seg09
[BasePosition]
#SegmentName Tx, Ty, Tz, Rx, Ry, Rz, BoneLength
MASTER 0.000000 0.000000 0.000000 -90.000000 0.000000 0.000000 10.000000 
root 0.000000 0.000000 0.000000 0.000000 0.000000 0.000000 10.000000 
chest 0.000000 0.000000 0.000000 0.000000 0.000000 0.000000 10.000000 
L_mid_tent01 0.000000 0.000000 0.000000 0.000000 0.000000 0.000000 10.000000 
R_mid_tent01 0.000000 0.000000 0.000000 0.000000 0.000000 0.000000 10.000000 
spine01 0.000000 0.000000 0.000000 0.000000 0.000000 0.000000 10.000000 
Bip01_Neck 0.000000 0.000000 0.000000 0.000000 0.000000 0.000000 10.000000 
L_humerus 0.000000 0.000000 0.000000 0.000000 0.000000 0.000000 10.000000 
R_humerus 0.000000 0.000000 0.000000 0.000000 0.000000 0.000000 10.000000 
weapon_bone 0.000000 0.000000 0.000000 0.000000 0.000000 0.000000 10.000000 
Bip01_Head 0.000000 0.000000 0.000000 0.000000 0.000000 0.000000 10.000000 
eye_left_bone 0.000000 0.000000 0.000000 0.000000 0.000000 0.000000 10.000000 
eye_right_bone 0.000000 0.000000 0.000000 0.000000 0.000000 0.000000 10.000000 
L_forearm 0.000000 0.000000 0.000000 0.000000 0.000000 0.000000 10.000000 
L_front_hand 0.000000 0.000000 0.000000 0.000000 0.000000 0.000000 10.000000 
L_weapon_bone 0.000000 0.000000 0.000000 0.000000 0.000000 0.000000 10.000000 
L_front_hand01_01 0.000000 0.000000 0.000000 0.000000 0.000000 0.000000 10.000000 
L_front_hand02_01 0.000000 0.000000 0.000000 0.000000 0.000000 0.000000 10.000000 
L_front_hand03_01 0.000000 0.000000 0.000000 0.000000 0.000000 0.000000 10.000000 
L_front_hand01_02 0.000000 0.000000 0.000000 0.000000 0.000000 0.000000 10.000000 
L_front_hand02_02 0.000000 0.000000 0.000000 0.000000 0.000000 0.000000 10.000000 
L_front_hand03_02 0.000000 0.000000 0.000000 0.000000 0.000000 0.000000 10.000000 
R_forearm 0.000000 0.000000 0.000000 0.000000 0.000000 0.000000 10.000000 
R_front_hand 0.000000 0.000000 0.000000 0.000000 0.000000 0.000000 10.000000 
R_weapon_bone 0.000000 0.000000 0.000000 0.000000 0.000000 0.000000 10.000000 
R_front_hand01_01 0.000000 0.000000 0.000000 0.000000 0.000000 0.000000 10.000000 
R_front_hand02_01 0.000000 0.000000 0.000000 0.000000 0.000000 0.000000 10.000000 
R_front_hand03_01 0.000000 0.000000 0.000000 0.000000 0.000000 0.000000 10.000000 
R_front_hand01_02 0.000000 0.000000 0.000000 0.000000 0.000000 0.000000 10.000000 
R_front_hand02_02 0.000000 0.000000 0.000000 0.000000 0.000000 0.000000 10.000000 
R_front_hand03_02 0.000000 0.000000 0.000000 0.000000 0.000000 0.000000 10.000000 
null_rope01_connect 0.000000 0.000000 0.000000 0.000000 0.000000 0.000000 10.000000 
Rope1_Seg01 0.000000 0.000000 0.000000 0.000000 0.000000 0.000000 10.000000 
Rope1_Seg02 0.000000 0.000000 0.000000 0.000000 0.000000 0.000000 10.000000 
Rope1_Seg03 0.000000 0.000000 0.000000 0.000000 0.000000 0.000000 10.000000 
Rope1_Seg04 0.000000 0.000000 0.000000 0.000000 0.000000 0.000000 10.000000 
Rope1_Seg05 0.000000 0.000000 0.000000 0.000000 0.000000 0.000000 10.000000 
Rope1_Seg06 0.000000 0.000000 0.000000 0.000000 0.000000 0.000000 10.000000 
Rope1_Seg07 0.000000 0.000000 0.000000 0.000000 0.000000 0.000000 10.000000 
Rope1_Seg09 0.000000 0.000000 0.000000 0.000000 0.000000 0.000000 10.000000 
L_mid_hand01 0.000000 0.000000 0.000000 0.000000 0.000000 0.000000 10.000000 
L_mid_hand02 0.000000 0.000000 0.000000 0.000000 0.000000 0.000000 10.000000 
L_mid_hand03 0.000000 0.000000 0.000000 0.000000 0.000000 0.000000 10.000000 
null_rope02_connect 0.000000 0.000000 0.000000 0.000000 0.000000 0.000000 10.000000 
Rope2_Seg01 0.000000 0.000000 0.000000 0.000000 0.000000 0.000000 10.000000 
Rope2_Seg02 0.000000 0.000000 0.000000 0.000000 0.000000 0.000000 10.000000 
Rope2_Seg03 0.000000 0.000000 0.000000 0.000000 0.000000 0.000000 10.000000 
Rope2_Seg04 0.000000 0.000000 0.000000 0.000000 0.000000 0.000000 10.000000 
Rope2_Seg05 0.000000 0.000000 0.000000 0.000000 0.000000 0.000000 10.000000 
Rope2_Seg06 0.000000 0.000000 0.000000 0.000000 0.000000 0.000000 10.000000 
Rope2_Seg07 0.000000 0.000000 0.000000 0.000000 0.000000 0.000000 10.000000 
Rope2_Seg09 0.000000 0.000000 0.000000 0.000000 0.000000 0.000000 10.000000 
R_mid_hand01 0.000000 0.000000 0.000000 0.000000 0.000000 0.000000 10.000000 
R_mid_hand02 0.000000 0.000000 0.000000 0.000000 0.000000 0.000000 10.000000 
R_mid_hand03 0.000000 0.000000 0.000000 0.000000 0.000000 0.000000 10.000000 
spine02 0.000000 0.000000 0.000000 0.000000 0.000000 0.000000 10.000000 
spine03 0.000000 0.000000 0.000000 0.000000 0.000000 0.000000 10.000000 
pelvis 0.000000 0.000000 0.000000 0.000000 0.000000 0.000000 10.000000 
null_rope03_connect 0.000000 0.000000 0.000000 0.000000 0.000000 0.000000 10.000000 
null_rope04_connect 0.000000 0.000000 0.000000 0.000000 0.000000 0.000000 10.000000 
Rope3_Seg01 0.000000 0.000000 0.000000 0.000000 0.000000 0.000000 10.000000 
Rope3_Seg02 0.000000 0.000000 0.000000 0.000000 0.000000 0.000000 10.000000 
Rope3_Seg03 0.000000 0.000000 0.000000 0.000000 0.000000 0.000000 10.000000 
Rope3_Seg04 0.000000 0.000000 0.000000 0.000000 0.000000 0.000000 10.000000 
Rope3_Seg05 0.000000 0.000000 0.000000 0.000000 0.000000 0.000000 10.000000 
Rope3_Seg06 0.000000 0.000000 0.000000 0.000000 0.000000 0.000000 10.000000 
Rope3_Seg07 0.000000 0.000000 0.000000 0.000000 0.000000 0.000000 10.000000 
Rope3_Seg08 0.000000 0.000000 0.000000 0.000000 0.000000 0.000000 10.000000 
Rope3_Seg09 0.000000 0.000000 0.000000 0.000000 0.000000 0.000000 10.000000 
R_rear_hand01 0.000000 0.000000 0.000000 0.000000 0.000000 0.000000 10.000000 
R_rear_hand02 0.000000 0.000000 0.000000 0.000000 0.000000 0.000000 10.000000 
R_rear_hand03 0.000000 0.000000 0.000000 0.000000 0.000000 0.000000 10.000000 
Rope4_Seg01 0.000000 0.000000 0.000000 0.000000 0.000000 0.000000 10.000000 
Rope4_Seg02 0.000000 0.000000 0.000000 0.000000 0.000000 0.000000 10.000000 
Rope4_Seg03 0.000000 0.000000 0.000000 0.000000 0.000000 0.000000 10.000000 
Rope4_Seg04 0.000000 0.000000 0.000000 0.000000 0.000000 0.000000 10.000000 
Rope4_Seg05 0.000000 0.000000 0.000000 0.000000 0.000000 0.000000 10.000000 
Rope4_Seg06 0.000000 0.000000 0.000000 0.000000 0.000000 0.000000 10.000000 
Rope4_Seg07 0.000000 0.000000 0.000000 0.000000 0.000000 0.000000 10.000000 
Rope4_Seg08 0.000000 0.000000 0.000000 0.000000 0.000000 0.000000 10.000000 
Rope4_Seg09 0.000000 0.000000 0.000000 0.000000 0.000000 0.000000 10.000000 
L_rear_hand01 0.000000 0.000000 0.000000 0.000000 0.000000 0.000000 10.000000 
L_rear_hand02 0.000000 0.000000 0.000000 0.000000 0.000000 0.000000 10.000000 
L_rear_hand03 0.000000 0.000000 0.000000 0.000000 0.000000 0.000000 10.000000 
#Beginning of Data. Separated by tabs
#Fr	Tx	Ty	Tz	Rx	Ry	Rz	SF
[MASTER]
15 -0.000448 2984.769775 113.223991 0.001660 0.001660 0.001660 2986.916504
16 -0.000472 3142.854980 -119.435249 0.001660 0.001660 0.001660 3145.123535
[root]
15 43.164993 -64.356079 1288.504639 -99.319572 -35.244102 -89.890015 1290.832642
16 68.622635 -32.547302 1280.398193 -100.361237 -34.335640 -89.942490 1282.648926
[chest]
15 -84.512650 -34.090519 0.000000 1.788313 0.205920 -179.355423 91.129311
16 -84.512650 -34.090519 0.000000 2.249178 0.117798 -178.272919 91.129311
[L_mid_tent01]
15 27.299404 22.177576 -249.918274 -0.942394 15.651780 68.769470 252.381149
16 27.299397 22.177580 -249.918274 -1.448531 18.502846 68.053673 252.381149
[R_mid_tent01]
15 23.228794 24.509907 226.238495 170.769653 -23.961628 64.199547 228.744751
16 23.228794 24.509907 226.238495 171.441574 -25.223787 62.099098 228.744751
[spine01]
15 -0.361383 -0.195265 0.000000 0.001845 0.001451 13.654368 0.410763
16 -0.361383 -0.195265 0.000000 0.001845 0.001451 13.654368 0.410763
[Bip01_Neck]
15 165.484543 71.581718 0.000119 176.643677 -1.657966 43.431908 180.302734
16 165.484543 71.581718 0.000119 176.643677 -1.657967 43.431911 180.302734
[L_humerus]
15 -13.983130 -135.272980 -120.471481 131.406357 79.559799 -137.700729 181.680161
16 -13.983130 -135.272980 -120.471481 125.232643 80.414658 -143.970383 181.680161
[R_humerus]
15 -13.983309 -135.273102 125.287651 -169.756775 -72.978882 -95.346214 184.909012
16 -13.983309 -135.273102 125.287651 -169.471451 -73.460152 -95.643204 184.909012
[weapon_bone]
15 235.964890 -300.705902 0.000000 0.000000 -89.951546 -128.212341 382.234833
16 235.964890 -300.705902 0.000000 0.000000 -89.951546 -128.212341 382.234833
[Bip01_Head]
15 213.553452 185.411758 15.697116 4.972546 5.809955 -43.861515 283.247223
16 213.611435 185.250244 17.782059 4.968378 4.965795 -43.876953 283.308502
[eye_left_bone]
15 -24.626970 125.451866 -64.772606 0.000000 -90.000000 -99.840431 143.318359
16 -24.626970 125.451866 -64.772606 0.000000 -90.000000 -99.840431 143.318359
[eye_right_bone]
15 -24.626970 125.451866 64.327362 0.000000 -89.965736 80.156380 143.117676
16 -24.626970 125.451866 64.327362 0.000000 -89.980217 80.156380 143.117676
[L_forearm]
15 322.776093 0.000000 -0.000119 0.000119 -0.002344 -95.807457 322.776093
16 322.776093 0.000000 -0.000119 0.000119 -0.002344 -95.807457 322.776093
[L_front_hand]
15 241.149185 -0.042021 -3.300071 -178.667953 -1.835447 -27.422350 241.171753
16 241.149185 -0.042021 -3.300071 -178.667953 -1.835447 -27.422350 241.171753
[L_weapon_bone]
15 156.183838 0.000000 0.000000 0.000014 0.000007 0.000001 156.183838
16 156.183838 0.000000 0.000000 0.000014 0.000007 0.000001 156.183838
[L_front_hand01_01]
15 86.095154 20.947098 -0.655860 -0.279531 -0.529728 65.431473 88.609184
16 86.095154 20.947098 -0.655860 -0.273295 -0.533469 64.985298 88.609184
[L_front_hand02_01]
15 86.935165 -11.437475 24.513514 141.258118 -54.537659 -45.777599 91.046425
16 86.935165 -11.437475 24.513514 140.772385 -54.262844 -45.183468 91.046425
[L_front_hand03_01]
15 86.637497 -14.123976 -20.424902 -141.638611 52.767319 -47.837204 90.126129
16 86.637497 -14.123976 -20.424902 -141.183044 52.494118 -47.265888 90.126129
[L_front_hand01_02]
15 71.020905 -0.000179 0.000030 0.000315 -0.002326 -105.415054 71.020905
16 71.020905 -0.000179 0.000030 0.000315 -0.002326 -105.400543 71.020905
[L_front_hand02_02]
15 71.020927 -0.000119 0.000060 0.000315 -0.002326 -105.415054 71.020927
16 71.020927 -0.000119 0.000060 0.000315 -0.002326 -105.400543 71.020927
[L_front_hand03_02]
15 71.020905 -0.000060 0.000060 0.000315 -0.002326 -105.415054 71.020905
16 71.020905 -0.000060 0.000060 0.000315 -0.002326 -105.400543 71.020905
[R_forearm]
15 322.776428 -0.000060 0.000030 0.209504 0.012586 -94.339050 322.776428
16 322.776428 -0.000060 0.000030 0.209504 0.012586 -94.339050 322.776428
[R_front_hand]
15 238.847015 -0.006795 2.210259 -2.635298 -10.645461 -26.312506 238.857239
16 238.847015 -0.006795 2.210259 -2.635298 -10.645461 -26.312506 238.857239
[R_weapon_bone]
15 155.664093 0.002503 -0.000030 0.003487 0.001180 -90.988930 155.664078
16 155.664093 0.002503 -0.000030 0.003487 0.001180 -90.988930 155.664078
[R_front_hand01_01]
15 87.624611 14.231146 22.918642 -140.102493 -53.853168 44.460335 91.683487
16 87.624611 14.231146 22.918642 -138.890259 -53.085796 42.950848 91.683487
[R_front_hand02_01]
15 89.356956 14.367283 -19.491137 140.872437 52.278004 47.106758 92.579636
16 89.356956 14.367283 -19.491137 139.720169 51.522045 45.641415 92.579636
[R_front_hand03_01]
15 87.286232 -22.307278 -0.143439 0.074609 -0.448192 -64.587509 90.091743
16 87.286232 -22.307278 -0.143439 0.065790 -0.451534 -63.409447 90.091743
[R_front_hand01_02]
15 71.020905 0.000060 0.000119 0.002323 -0.000334 106.381714 71.020905
16 71.020905 0.000060 0.000119 0.002323 -0.000334 106.381714 71.020905
[R_front_hand02_02]
15 71.020844 -0.000030 -0.000119 0.002323 -0.000334 106.381714 71.020836
16 71.020844 -0.000030 -0.000119 0.002323 -0.000334 106.381714 71.020836
[R_front_hand03_02]
15 71.020905 0.000000 0.000030 0.002323 -0.000334 106.381714 71.020905
16 71.020905 0.000000 0.000030 0.002323 -0.000334 106.381714 71.020905
[null_rope01_connect]
15 328.732483 0.000000 -0.000238 -133.568497 -65.368874 -169.676102 328.732483
16 328.732483 0.000000 -0.000238 -134.293045 -61.438824 -169.136627 328.732483
[Rope1_Seg01]
15 0.000000 0.000000 0.000000 -43.452137 27.449083 -94.716423 0.000000
16 0.000000 0.000000 0.000000 -19.949644 17.426771 -96.568504 0.000000
[Rope1_Seg02]
15 139.999863 -0.000179 0.000000 -39.287193 15.502526 8.496325 139.999863
16 139.999863 -0.000179 0.000000 -63.931911 24.324116 2.616565 139.999863
[Rope1_Seg03]
15 139.999924 0.000060 -0.000060 -22.759735 7.464198 12.591228 139.999924
16 139.999924 0.000060 -0.000060 -27.629953 7.701626 15.065888 139.999924
[Rope1_Seg04]
15 139.999924 -0.000060 -0.000119 -9.502276 -0.329367 12.425374 139.999924
16 139.999924 -0.000060 -0.000119 -7.500833 -1.808032 10.947330 139.999924
[Rope1_Seg05]
15 139.999832 0.000119 -0.000060 -2.068250 -11.408830 14.427315 139.999832
16 139.999832 0.000119 -0.000060 -1.338515 -9.384309 11.429893 139.999832
[Rope1_Seg06]
15 139.999954 0.000119 -0.000060 -0.675909 -8.525946 9.535505 139.999954
16 139.999954 0.000119 -0.000060 -0.576514 -9.525954 10.022808 139.999954
[Rope1_Seg07]
15 139.999985 0.000060 0.000000 -0.265016 -3.848832 4.985364 139.999985
16 139.999985 0.000060 0.000000 -0.318150 -4.579080 5.639453 139.999985
[Rope1_Seg09]
15 121.602913 0.000119 -0.000089 -89.793175 -1.359789 0.847147 121.602913
16 121.602913 0.000119 -0.000089 -89.793175 -1.359789 0.847147 121.602913
[L_mid_hand01]
15 103.859421 1.038730 8.195221 109.301483 -41.408253 -13.576799 104.187431
16 103.859421 1.038730 8.195221 109.056198 -40.604698 -13.201401 104.187431
[L_mid_hand02]
15 105.572853 -4.139662 -10.864139 -147.153671 31.943630 -38.737034 106.211075
16 105.572853 -4.139662 -10.864139 -146.713593 31.476528 -37.902313 106.211075
[L_mid_hand03]
15 104.641464 17.579376 -3.913581 -14.087292 12.528420 44.741467 106.179977
16 104.641464 17.579376 -3.913581 -14.267233 12.322316 43.898396 106.179977
[null_rope02_connect]
15 328.732849 0.000179 -0.000119 -78.700615 69.479477 39.834362 328.732849
16 328.732849 0.000179 -0.000119 -78.309532 69.078758 39.310860 328.732849
[Rope2_Seg01]
15 0.000064 0.000105 0.000047 15.737811 -5.448837 -38.851772 0.000132
16 0.000064 0.000102 0.000051 17.880232 -5.289259 -39.812744 0.000130
[Rope2_Seg02]
15 139.999741 -0.000060 -0.000119 -12.695191 9.957231 -0.534340 139.999756
16 139.999741 -0.000060 -0.000119 -13.028673 10.419302 -0.881449 139.999756
[Rope2_Seg03]
15 140.000107 0.000030 0.000000 -65.261139 14.333181 2.361864 140.000107
16 140.000107 0.000030 0.000000 -72.180862 14.501059 1.949838 140.000107
[Rope2_Seg04]
15 139.999802 0.000000 -0.000060 -59.116642 6.242321 13.119802 139.999802
16 139.999802 0.000000 -0.000060 -57.824738 5.250677 12.948274 139.999802
[Rope2_Seg05]
15 139.999985 -0.000060 0.000119 -9.207132 -14.604731 12.255675 139.999985
16 139.999985 -0.000060 0.000119 -6.002998 -14.040537 9.702379 139.999985
[Rope2_Seg06]
15 139.999893 -0.000030 -0.000119 -10.531363 -47.002739 25.801483 139.999893
16 139.999893 -0.000030 -0.000119 -7.196310 -48.987659 21.762165 139.999893
[Rope2_Seg07]
15 139.999893 0.000060 -0.000060 -2.731911 -25.021885 11.911321 139.999893
16 139.999893 0.000060 -0.000060 -3.481853 -28.426006 12.371916 139.999893
[Rope2_Seg09]
15 121.338966 0.000089 -0.000060 33.793236 -1.359788 -0.847141 121.338966
16 121.338966 0.000089 -0.000060 33.793236 -1.359788 -0.847141 121.338966
[R_mid_hand01]
15 104.680779 11.144459 -10.335981 -31.399162 37.614391 47.725441 105.778534
16 104.680779 11.144459 -10.335981 -33.085678 36.191685 44.913235 105.778534
[R_mid_hand02]
15 104.070427 2.443552 8.231699 66.339699 -51.820030 19.540783 104.424065
16 104.070427 2.443552 8.231699 67.611237 -49.370296 17.897308 104.424065
[R_mid_hand03]
15 106.028137 -11.221827 -5.996406 -172.206848 13.802570 -57.446243 106.788818
16 106.028137 -11.221827 -5.996406 -171.571182 13.427420 -54.737041 106.788818
[spine02]
15 129.756927 0.001550 0.000119 -1.023899 -3.926965 6.770993 129.756927
16 129.756927 0.001550 0.000119 -1.023899 -3.926965 6.770993 129.756927
[spine03]
15 78.614029 0.087338 -4.898872 1.040681 4.146420 4.212376 78.766563
16 78.614044 0.087331 -4.898872 1.040681 4.146420 4.212376 78.766579
[pelvis]
15 169.435242 0.051022 0.000000 0.019518 -0.190233 -10.721436 169.435257
16 169.435242 0.051022 0.000000 0.019518 -0.190233 -10.721436 169.435257
[null_rope03_connect]
15 -1.257226 -2.466202 137.391083 -145.382935 -80.437172 -103.200111 137.418976
16 -1.257226 -2.466202 137.391083 -146.017761 -79.362991 -103.474213 137.418976
[null_rope04_connect]
15 -1.259640 -2.480268 -137.844437 -145.382935 -80.437172 -103.200111 137.872513
16 -1.259640 -2.480268 -137.844437 -146.017761 -79.362991 -103.474213 137.872513
[Rope3_Seg01]
15 -0.000013 -0.000242 -0.000153 -149.307510 -41.966991 -55.201820 0.000287
16 -0.000013 -0.000254 -0.000153 -148.863510 -42.368149 -56.143379 0.000297
[Rope3_Seg02]
15 139.999924 -0.000119 0.000060 -7.640406 -8.898855 -29.729511 139.999924
16 139.999924 -0.000119 0.000060 -5.377367 -10.491624 -29.580376 139.999924
[Rope3_Seg03]
15 139.999924 -0.000119 0.000119 -3.562132 -0.911540 -5.152555 139.999924
16 139.999924 -0.000119 0.000119 -1.955300 -1.824639 -4.891013 139.999924
[Rope3_Seg04]
15 139.999924 0.000119 0.000000 -13.066693 -0.538034 -10.010349 139.999924
16 139.999924 0.000119 0.000000 -10.862559 -1.278545 -9.407001 139.999924
[Rope3_Seg05]
15 139.999924 -0.000238 0.000060 -87.526344 4.884808 -27.209068 139.999924
16 139.999924 -0.000238 0.000060 -91.086884 2.212361 -26.062841 139.999924
[Rope3_Seg06]
15 139.999893 -0.000119 -0.000060 -27.303419 28.745237 3.839493 139.999893
16 139.999893 -0.000119 -0.000060 -30.858330 29.565403 3.253804 139.999893
[Rope3_Seg07]
15 139.999771 0.000060 -0.000119 -2.391209 10.092677 7.204939 139.999771
16 139.999771 0.000060 -0.000119 -2.288593 10.242515 7.868795 139.999771
[Rope3_Seg08]
15 139.999985 -0.000060 0.000000 -0.431571 4.906912 3.874819 139.999985
16 139.999985 -0.000060 0.000000 -0.374922 4.975958 4.213956 139.999985
[Rope3_Seg09]
15 90.185997 -0.000179 -0.000060 89.793228 -1.359877 -0.847183 90.185997
16 90.185997 -0.000179 -0.000060 89.793228 -1.359877 -0.847183 90.185997
[R_rear_hand01]
15 103.366196 -6.073594 -10.757982 -168.130341 21.777140 -49.871906 104.101845
16 103.366196 -6.073594 -10.757982 -167.001480 21.149061 -46.791374 104.101845
[R_rear_hand02]
15 100.509819 12.039542 -7.992327 -26.694445 29.195726 47.151855 101.543350
16 100.509819 12.039542 -7.992327 -28.108641 27.848612 44.189137 101.543350
[R_rear_hand03]
15 101.539970 5.215704 5.435467 81.113556 -50.109848 10.702383 101.819031
16 101.539970 5.215704 5.435467 81.609138 -47.214466 10.038949 101.819031
[Rope4_Seg01]
15 -0.000064 -0.000131 0.000000 45.014374 -29.921375 -89.957947 0.000146
16 -0.000064 -0.000127 0.000000 44.550465 -28.404642 -88.851250 0.000142
[Rope4_Seg02]
15 139.999985 0.000060 0.000119 1.739966 -34.032688 10.124702 139.999985
16 139.999985 0.000060 0.000119 1.237493 -35.294609 10.602171 139.999985
[Rope4_Seg03]
15 139.999924 0.000000 -0.000238 18.140526 -34.104427 18.125607 139.999924
16 139.999924 0.000000 -0.000238 17.661024 -33.835011 17.906181 139.999924
[Rope4_Seg04]
15 139.999985 0.000000 0.000119 12.852032 -9.544788 9.933044 139.999985
16 139.999985 0.000000 0.000119 11.832152 -8.932302 9.211353 139.999985
[Rope4_Seg05]
15 139.999802 -0.000060 -0.000119 32.457829 -22.359995 26.259598 139.999802
16 139.999802 -0.000060 -0.000119 30.224588 -21.127609 22.463596 139.999802
[Rope4_Seg06]
15 139.999924 0.000000 0.000060 25.736267 -4.787725 46.209259 139.999924
16 139.999924 0.000000 0.000060 28.830397 -9.164500 46.516827 139.999924
[Rope4_Seg07]
15 139.999802 0.000000 0.000000 2.862003 4.535154 11.158212 139.999802
16 139.999802 0.000000 0.000000 3.937479 4.984358 12.979235 139.999802
[Rope4_Seg08]
15 139.999924 0.000000 0.000119 -0.870118 1.984050 4.251519 139.999924
16 139.999924 0.000000 0.000119 -0.680352 2.137508 4.570770 139.999924
[Rope4_Seg09]
15 90.185791 0.000060 0.000060 -135.617828 2.228885 0.850567 90.185791
16 90.185791 0.000060 0.000060 -135.617828 2.228885 0.850567 90.185791
[L_rear_hand01]
15 101.696655 -8.392275 -7.654577 -31.194277 -24.256094 142.819397 102.329041
16 101.696655 -8.392275 -7.654577 -30.608620 -25.023813 141.417831 102.329041
[L_rear_hand02]
15 102.726799 -1.568258 5.773216 82.562164 40.032185 171.334641 102.900848
16 102.726799 -1.568258 5.773216 82.398407 41.509426 171.081650 102.900848
[L_rear_hand03]
15 104.552910 9.721220 -10.420293 -164.408707 -19.357925 -140.691956 105.519653
16 104.552910 9.721220 -10.420293 -164.917755 -19.749290 -139.167572 105.519653
